<svg transform="scale(1)" version="1.1" id="Layer_1" xmlns="http://www.w3.org/2000/svg" xmlns:xlink="http://www.w3.org/1999/xlink" x="0px" y="0px" viewBox="0 0 500 500" xml:space="preserve" class="show_show__wrapper__graphic__5Waiy "><title>React</title><style type="text/css">
	.st0{fill:#A04040;}
	.st1{fill:#000001;}
	.st2{fill:#5023A7;}
	.st3{fill:#EA8383;}
	.st4{fill:#3F3D56;}
	.st5{fill:#FE8D32;}
	.st6{fill:#FFFFFF;}
	.st7{fill:#F2EBEB;}
</style><g id="character"><g id="hand"><g id="hand-2"><path class="st0" d="M222.4,245.1c0,0-19.5-25.8-22.8-28.8s-18.7,1.1-21,2.7s-16.9,15.4-15.9,16.3s8.2-4.1,8.2-4.1
				s-3.5,9.5-1.6,9.4c3.9-0.1,5-4.4,10.2-9.1c0,0-4.2,10.2-2.4,10.2c4.8,0,4.5-5.9,6.7-9.9C187.3,225.4,222.4,245.1,222.4,245.1z"></path><path class="st0" d="M211.6,253.9l-23.1-14c-4.4-2.7-16.3-6.3-17.6-8.7c-0.7-1.3,3-5.5,13.5-1.7c0,0,4.2-13.5,4.8-13.6
				c3.2-0.5,6.5-0.8,9.7-0.9l27.5,27.9c0,0,50,36.6,53.4,36.2s42.9-40.1,42.9-40.1l28.6,28.6c0,0-39.7,45.1-53.2,52
				S211.6,253.9,211.6,253.9z"></path></g><path class="st1" d="M173.9,228.2c1.7-0.7,3.5-1.1,5.3-1c0.9,0,1.8,0.1,2.7,0.3c0.9,0.2,1.8,0.4,2.6,0.6c3.3,1,6.6,2,10,2.9
			c-1.8,0.3-3.6,0.3-5.3,0c-1.8-0.2-3.5-0.6-5.2-1.1c-1.7-0.5-3.2-0.9-4.9-1.2C177.4,228.5,175.7,228.3,173.9,228.2z"></path></g><polygon class="st1" points="351.3,267.4 322.6,238.9 374.2,183.3 	"></polygon><path class="st2" d="M359.3,404c38.9,5.4,105.6-3.4,105.6-3.4S492.4,330,415,206.5c-11.6-18.6-37.6-38.7-44.7-25.9
		c0,0-29.7,87.1-23.2,94.1s32.5,20.2,32.5,20.2L359.3,404z"></path><path class="st1" d="M358,148c-9.5,2.5-43.3,10.6-43.3,10.6s0.8-33.5,14.9-37.9S358,148,358,148z"></path><path class="st3" d="M373.1,211.2c-2.2,2.9-6.1-0.6-6.5-4.2c-3.1-26.3-14.8-56.5-19.2-55.4c-17.4,4.2-30.8-20.6-30.8-20.6
		s-15.6-2.7-16.3-6s10.1-11.8,16.5-21s9.9-20.8,19.7-20.2s0.6,14.8,8.8,24.7c4.9,6,13.3,4.4,13.3,4.4s0.1-11.3,12.6-5.2
		s-3.6,21.3-2,23.9c3.4,5.6,13.9,46.4,17.1,53.7C387,186.6,379.7,202.6,373.1,211.2z"></path><path class="st1" d="M337.9,111.1c-0.8,0.2-1.6,0.4-2.4,0.7c-0.7,0.3-1.3,0.6-1.9,1c-0.6,0.4-1.1,0.9-1.6,1.4
		c-0.3,0.3-0.5,0.6-0.8,0.9c-0.3,0.4-0.6,0.7-0.9,1c-0.1-0.9,0-1.9,0.4-2.7c0.4-0.9,1-1.7,1.8-2.2c0.8-0.6,1.8-0.9,2.8-0.9
		C336.2,110.2,337.1,110.5,337.9,111.1z"></path><path class="st1" d="M344,118.1c-0.3-0.1-0.7-0.1-1-0.1c-0.2,0-0.4-0.1-0.6-0.2c-0.2-0.1-0.3-0.3-0.5-0.5c-0.2-0.3-0.3-0.6-0.4-1
		c0.3-0.3,0.6-0.4,1-0.4c0.3,0,0.6,0.1,0.9,0.2c0.3,0.2,0.5,0.5,0.6,0.8C344.3,117.3,344.2,117.7,344,118.1z"></path><path class="st1" d="M340.1,120.2c-0.4,0-0.7-0.1-1.1-0.2c-0.2-0.1-0.4-0.2-0.6-0.4c-0.2-0.2-0.3-0.3-0.3-0.6l-0.3-1
		c0.3-0.3,0.8-0.4,1.2-0.3c0.4,0.1,0.7,0.2,0.9,0.5c0.2,0.2,0.4,0.6,0.4,0.9C340.3,119.5,340.3,119.9,340.1,120.2z"></path><path class="st0" d="M339.2,136c0,0-2.9-2.4-5.5,0s3.9,8.7,8.4,6.5S339.2,136,339.2,136z"></path><path class="st1" d="M338.9,131.6c0.8,1.1,1.2,2.4,1.2,3.7c0,1.4-0.4,2.8-1.1,3.9c-0.8,1.1-1.8,2.1-3.1,2.6
		c-0.6,0.3-1.2,0.5-1.9,0.7c-0.6,0.1-1.3,0.2-1.9,0.2c0.5-0.4,1-0.8,1.5-1.1c0.5-0.4,1-0.7,1.4-1.1c0.9-0.7,1.6-1.5,2.2-2.4
		c0.6-0.9,1-1.9,1.2-3C338.7,134,338.9,132.8,338.9,131.6z"></path><path class="st0" d="M335,105.2c-1.8,0.2-3.5,0.8-5.1,1.5c-0.8,0.4-1.5,0.8-2.2,1.4c-0.4,0.2-0.7,0.6-1.1,0.8
		c-0.4,0.3-0.8,0.6-1.2,0.9c0.1-0.5,0.2-1,0.4-1.5c0.6-1.5,1.7-2.7,3.1-3.4c1-0.5,2-0.7,3.1-0.7C333.2,104.3,334.2,104.6,335,105.2z
		"></path><path class="st0" d="M328.6,84.2c0,0,13.6,31.2,36.9,38.2c0,0-16.7,14.9-10.6,25.3s-12.1,18.3-9.2,26.9l95.9-32.7
		c0,0-15.3-25.2-34.3-20.8s0.1-23-25.4-37.6S328.6,84.2,328.6,84.2z"></path><path class="st0" d="M448.1,139.6c-3.6-3.7-7.5-7.1-11.8-10c-4.2-2.9-8.8-5.1-13.7-6.5c-2.4-0.7-4.9-1-7.5-1c-2.5,0-5,0.3-7.5,0.9
		c-4.9,1.4-9.6,3.8-13.6,7c3.6-3.9,8.1-6.8,13.1-8.5c5.1-1.7,10.7-1.8,15.9-0.4c5.1,1.4,9.9,3.9,14.1,7.2
		C441.4,131.5,445.1,135.3,448.1,139.6z"></path><path class="st1" d="M328.6,84.2c1.5,2.8,3,5.6,4.8,8.3s3.5,5.3,5.4,7.9c3.7,5.1,8.1,9.7,13.1,13.5c2.5,1.9,5.2,3.5,8,4.9
		c2.8,1.3,5.8,2.2,8.9,2.7c6.3,0.8,12.7-0.1,18.5-2.5l-2.2,1l-1.1,0.5c-0.4,0.2-0.8,0.3-1.1,0.4l-2.3,0.8l-2.4,0.6
		c-3.2,0.7-6.5,0.9-9.7,0.6c-3.3-0.3-6.5-1.2-9.5-2.5c-3-1.3-5.8-3-8.4-5c-5.1-4-9.6-8.8-13.1-14.2
		C333.8,95.9,330.8,90.2,328.6,84.2z"></path><path class="st2" d="M383,179.3c0,0-3.4-20.5,29.8-5.4c11.6,5.3,25,32.7,25,32.7L404,234.2C404,234.2,386,215.3,383,179.3z"></path><polygon class="st1" points="293.4,256 316.3,293.1 328.6,288.3 302.5,251.6 	"></polygon><path class="st4" d="M374.2,421.5c0,0-68-132.8-67.4-138.7s16.2-8.1,16.2-8.1s91,119.2,93.2,130.9S376.7,427.1,374.2,421.5z"></path><path class="st5" d="M190.6,131.6c0,0,76.3-92.6,148.6-0.6S265.9,299.6,217,249S168.4,151.9,190.6,131.6z"></path><path class="st3" d="M198.1,142.1c0,0,60.6-73.9,119.9,1.2s-51.5,141.4-97.3,94C180.8,195.8,180.5,158.2,198.1,142.1z"></path><path class="st1" d="M317.1,247.9c6-5.6,11.4-11.8,16-18.6c4.7-6.7,8.4-14,11.3-21.7c2.9-7.6,4.6-15.6,5-23.8
		c0.2-4.1,0.1-8.1-0.4-12.1c-1.3-12.2-5.4-23.9-11.9-34.2c-2.2-3.4-4.6-6.8-7.1-9.9c-2.6-3.2-5.3-6.2-8.3-9
		c-5.9-5.7-12.3-10.8-19.1-15.3c-6.8-4.6-14-8.6-21.5-11.9c3.9,1.4,7.6,3.1,11.3,5c3.7,1.9,7.2,3.9,10.8,6.1
		c7,4.4,13.6,9.4,19.6,15.1c12.1,11.2,21.7,25.6,26,41.7c2.2,8,3.1,16.4,2.6,24.7c-0.5,8.3-2.3,16.5-5.3,24.2
		c-3.1,7.7-7.1,15-12,21.7c-2.4,3.3-5.1,6.5-7.9,9.6C323.3,242.4,320.3,245.2,317.1,247.9z"></path><path class="st6" d="M207.5,141.5c-1.2,4.3-2.4,8.4-3.4,12.6s-2,8.2-2.6,12.4c-0.7,4.1-1,8.3-1,12.4c0,2.1,0.1,4.2,0.4,6.3
		c0.2,2.1,0.6,4.2,1,6.4c-1.4-1.8-2.5-3.7-3.4-5.8c-0.9-2.1-1.5-4.3-1.9-6.5c-0.7-4.5-0.7-9.1,0-13.6c0.7-4.4,2-8.8,3.9-12.9
		C202.1,148.7,204.5,144.9,207.5,141.5z"></path><path class="st6" d="M213.3,134.8c0,0,4.3-8.9,9.1-7.3S213.3,134.8,213.3,134.8z"></path><path class="st3" d="M437.8,206.6c0,0,39,79.9,36.6,97.9s-141.1,35.4-141.1,35.4l3.9-22.8l93-33.8l-24.8-52.6L437.8,206.6z"></path><path class="st3" d="M359.3,334.8l-19.8-41c-2.1-4.3-6.1-6.4-1.5,14.2c0,0-15.8,2.4-21.7-2.5s-11.3-15-13.2-11.3
		s11.2,20.9,11.2,20.9s-3.8,2.8,0.2,6.6c1.2,3,2.7,5.9,4.2,8.7c3.9,7.4,12.5,11.1,20.5,8.8L359.3,334.8z"></path><path class="st1" d="M321.4,325.9c-1.1-0.1-2.2-0.4-3.3-0.8c-1-0.4-2-1-3-1.7c-1-0.7-1.8-1.6-2.4-2.6c-0.3-0.5-0.5-1.2-0.6-1.8
		c-0.1-0.6,0.2-1.3,0.7-1.7c-0.1,1,0.3,2,1.1,2.6c0.7,0.7,1.5,1.3,2.3,1.9C318.1,323.1,319.8,324.4,321.4,325.9z"></path><path class="st1" d="M319,319.3c-2-1.6-3.9-3.3-5.7-5.1c-1.8-1.8-3.4-3.8-5-5.8c-0.8-1-1.5-2.1-2.2-3.2c-0.7-1.1-1.3-2.2-1.9-3.4
		c-0.6-1.2-1.1-2.4-1.4-3.7c-0.2-0.7-0.2-1.3-0.2-2c0-0.7,0.2-1.3,0.6-1.9c-0.2,1.2,0,2.5,0.6,3.5c0.5,1.1,1.1,2.2,1.8,3.2
		c1.4,2.1,2.9,4.1,4.4,6.1C312.9,311.1,316.1,315.1,319,319.3z"></path><path class="st6" d="M307.3,161.2c0,0-75.2-10.8-85.8,49.7C221.5,210.9,299.4,220.8,307.3,161.2z"></path><path class="st1" d="M310.7,160.2c-9.4-0.2-18.8,0.4-28.2,1.8c-4.6,0.7-9.2,1.6-13.7,2.8c-4.5,1.2-8.9,2.7-13.2,4.5
		c-4.3,1.8-8.4,3.9-12.2,6.5c-3.9,2.5-7.4,5.5-10.6,8.9c-3.2,3.4-5.8,7.2-8,11.3c-2.2,4.1-3.8,8.6-4.6,13.2
		c0.2-4.8,1.3-9.5,3.3-13.9c1.9-4.4,4.4-8.6,7.6-12.3c1.6-1.9,3.2-3.6,5.1-5.2c1.8-1.6,3.7-3.1,5.7-4.5c4-2.7,8.2-5.1,12.7-6.9
		c8.9-3.7,18.3-6,27.8-6.9C291.7,158.6,301.3,158.8,310.7,160.2z"></path><path class="st1" d="M243.7,173.9c0,0,20,1.2,18,34.6c0,0-45,9.9-41.2-1.1C220.4,207.4,228.3,177,243.7,173.9z"></path><path class="st1" d="M315.7,191.3c-1-0.7-2-1.3-3.1-1.9c-1-0.5-2-1-3-1.5s-2-0.9-3.1-1.5c-0.5-0.2-1.1-0.5-1.6-0.9
		c-0.6-0.3-1.1-0.6-1.6-1c0.6-0.2,1.3-0.3,1.9-0.4c0.6,0,1.3,0,1.9,0c1.3,0.1,2.6,0.5,3.7,1.1c1.2,0.6,2.3,1.4,3.2,2.4
		C315,188.7,315.6,190,315.7,191.3z"></path><path class="st1" d="M299.9,205.5c-1.2-0.7-2.3-1.5-3.3-2.3l-3-2.3c-1-0.8-1.9-1.5-2.9-2.2s-2-1.3-3.3-2.1c1.4-0.5,2.9-0.5,4.3-0.1
		c1.4,0.4,2.7,1.1,3.8,2c1.1,0.9,2.1,1.9,2.8,3.1C299.1,202.8,299.7,204.1,299.9,205.5z"></path><path class="st1" d="M430.3,283.3c-3.6-6.5-7.1-13.1-10.5-19.7c-3.4-6.6-6.7-13.3-10-20s-6.5-13.4-9.6-20.2s-6.2-13.5-9.1-20.4
		c3.6,6.5,7.1,13.1,10.5,19.7c3.4,6.6,6.7,13.3,10,20s6.5,13.4,9.6,20.2S427.4,276.4,430.3,283.3z"></path><path class="st0" d="M281,132.9c-4.9-0.2-9.8,0-14.7,0.5c-4.2,0.5-8.3,1.5-12.2,3c-1.9,0.8-3.8,1.6-5.7,2.6c-1.9,1-3.8,2.1-5.7,3.4
		c-3.9,2.4-7.8,5.4-12.6,8.4c0.5-5.5,2.6-10.8,6-15.2c3.5-4.7,8.2-8.2,13.6-10.3c5.5-2.2,11.6-2.6,17.4-1.2c2.8,0.7,5.4,1.8,7.8,3.2
		c1.2,0.7,2.3,1.6,3.4,2.5C279.3,130.7,280.2,131.7,281,132.9z"></path></g><g id="screen"><g id="cv"><polygon class="st7" points="26.9,355.2 25.4,256.4 98.9,255.4 96.1,354.2 		"></polygon><path class="st6" d="M66.7,294c1.8-0.4,3.5-0.7,5.3-0.9c1.8-0.2,3.6-0.3,5.4-0.3s3.6,0,5.4,0.1c1.8,0.1,3.6,0.3,5.4,0.7
			c-1.8,0.4-3.5,0.7-5.3,0.9c-1.8,0.2-3.6,0.3-5.4,0.3s-3.6,0-5.4-0.1C70.3,294.6,68.5,294.4,66.7,294z"></path><path class="st6" d="M66.6,284.5c1.8-0.4,3.6-0.7,5.4-0.9c1.8-0.2,3.6-0.3,5.4-0.3s3.6,0,5.4,0.1c1.8,0.1,3.6,0.3,5.4,0.7
			c-1.8,0.4-3.6,0.7-5.4,0.9c-1.8,0.2-3.6,0.3-5.4,0.3s-3.6,0-5.4-0.1C70.2,285.1,68.4,284.9,66.6,284.5z"></path><path class="st6" d="M66.5,275.3c1.8-0.4,3.6-0.7,5.4-0.9c1.8-0.2,3.6-0.3,5.4-0.3s3.6,0,5.4,0.1c1.8,0.1,3.6,0.3,5.4,0.7
			c-1.8,0.4-3.6,0.7-5.4,0.9c-1.8,0.2-3.6,0.3-5.4,0.3s-3.6,0-5.4-0.1C70,275.9,68.2,275.6,66.5,275.3z"></path><path class="st6" d="M66.3,267c1.8-0.4,3.6-0.7,5.4-0.9c1.8-0.2,3.6-0.3,5.4-0.3s3.6,0,5.4,0.1c1.8,0.1,3.6,0.3,5.4,0.7
			c-1.8,0.4-3.6,0.7-5.4,0.9c-1.8,0.2-3.6,0.3-5.4,0.3s-3.6,0-5.4-0.1C69.9,267.6,68.1,267.4,66.3,267z"></path><path class="st6" d="M40,339.3c3.9-0.5,7.8-0.7,11.7-0.9s7.8-0.3,11.7-0.4s7.8,0,11.7,0s7.8,0.2,11.7,0.6
			c-3.9,0.5-7.8,0.7-11.7,0.9s-7.8,0.3-11.7,0.4s-7.8,0-11.7-0.1S43.9,339.6,40,339.3z"></path><path class="st6" d="M39.8,329.2c3.9-0.5,7.8-0.7,11.7-0.9s7.8-0.3,11.7-0.4s7.8,0,11.7,0s7.8,0.2,11.7,0.6
			c-3.9,0.5-7.8,0.7-11.7,0.9s-7.8,0.3-11.7,0.4s-7.8,0-11.7-0.1S43.7,329.6,39.8,329.2z"></path><path class="st6" d="M39.7,319.4c3.9-0.5,7.8-0.7,11.7-0.9s7.8-0.3,11.7-0.4s7.8,0,11.7,0s7.8,0.3,11.7,0.6
			c-3.9,0.5-7.8,0.7-11.7,0.9s-7.8,0.3-11.7,0.4s-7.8,0-11.7-0.1S43.6,319.8,39.7,319.4z"></path><path class="st6" d="M39.6,310.6c3.9-0.5,7.8-0.7,11.7-0.9s7.8-0.3,11.7-0.4s7.8,0,11.7,0s7.8,0.2,11.7,0.6
			c-3.9,0.5-7.8,0.8-11.7,1s-7.8,0.3-11.7,0.4s-7.8,0-11.7-0.1S43.5,311,39.6,310.6z"></path><path class="st4" d="M34.5,280.2c0,0.8,1.6,10.6,11.7,9.1s17.7-23.5,5.3-24.2S33.6,268.2,34.5,280.2z"></path></g><path class="st7" d="M67.4,179.5c0,0,135.3-0.5,137.5,0.1c2,0.6,0,43.5,0,43.5H67.4C65.1,223.2,67.4,179.5,67.4,179.5z"></path><path class="st3" d="M93,215.5l-1-1.7c3.9-2.3,8.5-5.2,13-8.2c0.8-5.4,6-12.2,10.3-15.4c3.1-2.4,5.8-2.9,7.6-1.7
		c0.8,0.5,1.2,1.3,1.2,2.2c-0.1,3.7-8.8,10.5-17.2,16.1c0,0.5,0,1.1,0.2,1.6c0.4,1.4,1.7,2.2,3.9,2.3c4.6,0.3,10-1,14.9-2.8
		c0-1.7,1.1-3.7,3-5.8c3.3-3.6,8.6-6.7,12.1-5.5c1.2,0.3,2,1.4,1.7,2.6c-0.5,2.7-6.8,6.9-14.3,9.9c0.7,0.6,2,0.9,4,0.8
		c6.2-0.4,12.3-1.8,18-4.2c2.2-3,5-5.6,8.2-7.5c1.9-1,3.2-1.1,4-0.2c0.5,0.6,0.6,1.4,0.2,2.1c-0.9,2-5.4,4.9-11.2,7.3
		c-1,1.6-1.4,2.8-1,3.5s2,1.1,4.4,0.9c14.2-1.1,20.1-10.5,20.1-10.6l1.7,1c-0.2,0.4-6.4,10.4-21.7,11.5c-3.8,0.3-5.9-0.6-6.5-2.6
		c-0.2-0.9-0.1-1.9,0.2-2.8c-5.3,2-10.8,3.2-16.5,3.5c-3.1,0.1-5.1-0.6-6-2.1c-5.2,1.9-10.8,3.1-15.5,2.8c-3.8-0.2-5.2-2.1-5.7-3.7
		c-0.1-0.3-0.2-0.6-0.2-0.9C99.7,211.5,94.9,214.4,93,215.5z M139.3,198.3c-2.4,0-6.2,2.1-8.9,5.1c-1,1-1.8,2.3-2.3,3.6
		c6.9-2.8,12.3-6.5,12.7-8.2c0-0.1,0-0.2-0.4-0.4C139.9,198.3,139.6,198.2,139.3,198.3L139.3,198.3z M120.7,189.8
		c-1.6,0.2-3.1,0.9-4.3,1.9c-4,3.2-7.1,7.4-9,12.1c7.9-5.4,14.6-10.9,14.6-13.3c0-0.2,0-0.3-0.3-0.5
		C121.4,189.9,121,189.8,120.7,189.8L120.7,189.8z M161,199.3c-1,0.1-3.7,1.9-6.2,4.3C158.1,201.9,160.5,200.2,161,199.3z"></path><rect class="st3" x="176.9" y="193.7" width="2" height="3.4"></rect><path class="st7" d="M126.9,262.4c0,0,143.1-0.8,147.4,0s0.8,101,0,112s-137.2,4.2-147.4,0S121,262.5,126.9,262.4z"></path><rect class="st2" x="163.7" y="283.5" width="90.2" height="2"></rect><rect class="st2" x="163.7" y="291.8" width="34.3" height="2"></rect><rect class="st2" x="163.7" y="304.3" width="90.2" height="2"></rect><rect class="st2" x="163.7" y="312.6" width="34.3" height="2"></rect><rect class="st2" x="142.1" y="282.1" width="7.1" height="2"></rect><rect class="st2" x="142.1" y="302.9" width="7.1" height="2"></rect><g id="graph"><path class="st5" d="M224.9,362.2c0,0-1.1-25.3-0.6-26.1s9.4,0,9.4,0v26.2L224.9,362.2z"></path><path class="st5" d="M238.5,361.9c0,0-1.1-34.4-0.6-35.5s9.4,0,9.4,0V362L238.5,361.9z"></path><path class="st5" d="M211,362.2c0,0-1.1-14.8-0.6-15.3s9.4,0,9.4,0v15.4L211,362.2z"></path></g></g></svg>